FFmpeg version SVN-r25716, Copyright (c) 2000-2010 the FFmpeg developers  built on Nov 10 2010 12:23:18 with gcc 4.1.2 20080704 (Red Hat 4.1.2-48)  configuration: --enable-libmp3lame --enable-shared --disable-mmx --arch=x86_64  libavutil     50.33. 0 / 50.33. 0  libavcore      0.12. 1 /  0.12. 1  libavcodec    52.94. 4 / 52.94. 4  libavformat   52.84. 0 / 52.84. 0  libavdevice   52. 2. 2 / 52. 2. 2  libavfilter    1.59. 0 /  1.59. 0  libswscale     0.12. 0 /  0.12. 0Seems stream 0 codec frame rate differs from container frame rate: 1000.00 (1000/1) -> 10.00 (10/1)Input #0, mov,mp4,m4a,3gp,3g2,mj2, from '/RAID10/data/converted_video_files/25777.mov':  Metadata:    major_brand     : qt      minor_version   : 537199360    compatible_brands: qt    Duration: 00:00:07.40, start: 0.000000, bitrate: 7655 kb/s    Stream #0.0(eng): Video: mpeg4, yuv420p, 744x635 [PAR 1:1 DAR 744:635], 7653 kb/s, 10 fps, 10 tbr, 600 tbn, 1k tbc[buffer @ 0x13b12420] w:744 h:635 pixfmt:yuv420pOutput #0, flv, to '/RAID10/data/converted_video_files/25777.flv':  Metadata:    encoder         : Lavf52.84.0    Stream #0.0(eng): Video: flv, yuv420p, 744x635 [PAR 1:1 DAR 744:635], q=2-31, 600 kb/s, 1k tbn, 24 tbcStream mapping:  Stream #0.0 -> #0.0Press [q] to stop encodingframe=   13 fps=  0 q=22.7 size=    1462kB time=1.25 bitrate=9578.9kbits/s    frame=   31 fps= 29 q=31.0 size=    1591kB time=3.04 bitrate=4283.3kbits/s    frame=   43 fps= 27 q=31.0 size=    1679kB time=4.25 bitrate=3235.8kbits/s    frame=   55 fps= 26 q=31.0 size=    1761kB time=5.46 bitrate=2642.4kbits/s    frame=   73 fps= 28 q=24.8 size=    1886kB time=7.25 bitrate=2130.7kbits/s    frame=   74 fps= 28 q=31.0 Lsize=    1896kB time=7.33 bitrate=2118.0kbits/s    video:1895kB audio:0kB global headers:0kB muxing overhead 0.071854%